<?xml version="1.0" standalone="no"?>
<!DOCTYPE svg PUBLIC "-//W3C//DTD SVG 20010904//EN"
 "http://www.w3.org/TR/2001/REC-SVG-20010904/DTD/svg10.dtd">
<svg version="1.0" xmlns="http://www.w3.org/2000/svg"
 width="700.000000pt" height="700.000000pt" viewBox="0 0 700.000000 700.000000"
 preserveAspectRatio="xMidYMid meet">
<metadata>
Created by potrace 1.11, written by Peter Selinger 2001-2013
</metadata>
<g transform="translate(0.000000,700.000000) scale(0.100000,-0.100000)"
fill="#000000" stroke="none">
<path d="M3265 6994 c-484 -48 -778 -120 -1160 -283 -794 -340 -1476 -1022
-1816 -1816 -200 -469 -284 -881 -284 -1395 0 -514 84 -926 284 -1395 340
-794 1022 -1476 1816 -1816 469 -200 881 -284 1395 -284 514 0 926 84 1395
284 794 340 1476 1022 1816 1816 200 469 284 881 284 1395 0 514 -84 926 -284
1395 -340 794 -1022 1476 -1816 1816 -326 139 -612 216 -980 265 -104 14 -564
27 -650 18z m920 -1446 c295 -645 571 -1334 916 -2290 l38 -108 -187 0 -188 0
-108 303 c-238 662 -432 1190 -496 1352 -78 194 -169 406 -179 418 -8 8 -116
-232 -199 -443 -48 -122 -260 -704 -480 -1320 l-109 -305 -176 -3 c-106 -1
-177 1 -177 7 0 14 262 724 388 1051 184 478 403 1002 542 1296 l59 124 159 0
159 0 38 -82z m-1836 -2015 c231 -646 435 -1202 491 -1343 70 -174 169 -402
179 -413 8 -8 105 208 200 444 42 104 325 885 539 1484 l50 140 176 3 c97 1
176 -1 176 -6 0 -13 -258 -710 -385 -1042 -185 -482 -400 -996 -554 -1322
l-50 -108 -159 0 -159 0 -37 83 c-294 639 -533 1239 -921 2305 l-34 92 187 0
187 0 114 -317z"/>
</g>
</svg>
