<?xml version="1.0" standalone="no"?>
<!DOCTYPE svg PUBLIC "-//W3C//DTD SVG 20010904//EN"
 "http://www.w3.org/TR/2001/REC-SVG-20010904/DTD/svg10.dtd">
<svg version="1.0" xmlns="http://www.w3.org/2000/svg"
 width="700.000000pt" height="700.000000pt" viewBox="0 0 700.000000 700.000000"
 preserveAspectRatio="xMidYMid meet">
<metadata>
Created by potrace 1.11, written by Peter Selinger 2001-2013
</metadata>
<g transform="translate(0.000000,700.000000) scale(0.100000,-0.100000)"
fill="#000000" stroke="none">
<path d="M3285 6994 c-203 -20 -276 -28 -375 -45 -610 -105 -1195 -376 -1665
-772 -95 -81 -310 -294 -394 -392 -468 -542 -742 -1176 -833 -1925 -17 -137
-17 -583 0 -720 69 -569 227 -1028 514 -1491 145 -236 311 -440 525 -649 204
-200 371 -332 592 -468 463 -287 922 -445 1491 -514 137 -17 583 -17 720 0
569 69 1028 227 1491 514 360 222 692 528 958 882 323 430 549 960 640 1501
38 223 46 327 46 585 0 258 -8 362 -46 585 -105 627 -382 1216 -800 1700 -84
98 -299 311 -394 392 -518 437 -1148 710 -1845 798 -117 15 -536 28 -625 19z
m830 -1666 c115 -251 159 -351 275 -633 168 -407 570 -1470 570 -1507 0 -5
-75 -7 -167 -6 l-166 3 -134 375 c-222 625 -380 1053 -454 1228 -39 92 -78
186 -87 210 -9 23 -19 42 -22 42 -7 0 -107 -227 -178 -405 -63 -158 -238 -637
-417 -1142 l-108 -303 -158 0 c-88 0 -159 4 -159 8 0 5 77 217 170 473 250
681 465 1211 660 1627 l53 112 142 0 142 0 38 -82z m-1608 -1888 c219 -616
361 -1003 438 -1189 112 -274 120 -291 126 -291 8 0 110 235 193 447 78 197
208 553 397 1086 l112 317 160 0 c147 0 159 -1 155 -17 -3 -10 -82 -227 -176
-483 -245 -668 -419 -1100 -607 -1508 l-97 -212 -142 0 -141 0 -34 73 c-224
479 -444 1027 -731 1817 -66 182 -120 333 -120 336 0 2 75 3 167 2 l166 -3
134 -375z"/>
</g>
</svg>
