<svg xmlns="http://www.w3.org/2000/svg" viewBox="0 0 20 20">
  <path d="M280.992,434.954a10.129,10.129,0,0,1,10,10.254,10.233,10.233,0,0,1-6.832,9.726c-.507.1-.687-.218-.687-.492,0-.336.012-1.441.012-2.811a2.482,2.482,0,0,0-.68-1.9c2.227-.254,4.566-1.121,4.566-5.058a4.019,4.019,0,0,0-1.027-2.754,3.778,3.778,0,0,0-.1-2.711s-.839-.277-2.75,1.051a9.179,9.179,0,0,0-5.007,0c-1.911-1.328-2.75-1.051-2.75-1.051a3.786,3.786,0,0,0-.1,2.711,4.05,4.05,0,0,0-1.03,2.754c0,3.926,2.336,4.808,4.559,5.066a2.2,2.2,0,0,0-.638,1.371,2.1,2.1,0,0,1-2.91-.851,2.108,2.108,0,0,0-1.53-1.059s-.977-.012-.072.625a2.691,2.691,0,0,1,1.114,1.5s.586,1.828,3.367,1.207c.005.86.016,1.668.016,1.91,0,.274-.184.59-.684.492a10.29,10.29,0,0,1,3.16-19.98" transform="translate(-270.992 -434.954)"/>
</svg>
