<svg id="icon-gear" xmlns="http://www.w3.org/2000/svg" viewBox="0 0 20 20">
  <g transform="translate(-1438 -2)">
    <path d="M19.911,12.98a7.584,7.584,0,0,0,.072-.98,7.584,7.584,0,0,0-.072-.98l2.169-1.65a.5.5,0,0,0,.123-.64L20.148,5.27a.524.524,0,0,0-.627-.22l-2.56,1a7.564,7.564,0,0,0-1.737-.98l-.391-2.65a.5.5,0,0,0-.5-.42H10.217a.5.5,0,0,0-.5.42L9.322,5.07a7.955,7.955,0,0,0-1.737.98l-2.56-1a.508.508,0,0,0-.627.22L2.342,8.73a.484.484,0,0,0,.123.64l2.169,1.65a7.718,7.718,0,0,0-.072.98,7.718,7.718,0,0,0,.072.98L2.465,14.63a.5.5,0,0,0-.123.64L4.4,18.73a.524.524,0,0,0,.627.22l2.56-1a7.564,7.564,0,0,0,1.737.98l.391,2.65a.5.5,0,0,0,.5.42h4.112a.5.5,0,0,0,.5-.42l.391-2.65a7.955,7.955,0,0,0,1.737-.98l2.56,1a.508.508,0,0,0,.627-.22L22.2,15.27a.5.5,0,0,0-.123-.64ZM12.273,15.5a3.5,3.5,0,1,1,3.6-3.5A3.554,3.554,0,0,1,12.273,15.5Z" transform="translate(1435.729 0)"/>
  </g>
</svg>
