<svg xmlns="http://www.w3.org/2000/svg" viewBox="0 0 23 20">
	<path id="icon-restore" d="M13.147,0A10.144,10.144,0,0,0,2.606,10H.565a.558.558,0,0,0-.34,1L3.4,14.11a.556.556,0,0,0,.793,0L7.366,11a.613.613,0,0,0-.453-1H4.873a7.836,7.836,0,0,1,8.048-7.777,7.988,7.988,0,0,1,7.821,7.666,7.9,7.9,0,0,1-7.935,7.888A7.607,7.607,0,0,1,7.933,16.11a1.075,1.075,0,0,0-1.474.111,1.1,1.1,0,0,0,.113,1.666A10.024,10.024,0,0,0,12.807,20a10.129,10.129,0,0,0,10.2-10.332A10.239,10.239,0,0,0,13.147,0Zm-.68,5.555a.886.886,0,0,0-.907.889v4.111a1.162,1.162,0,0,0,.567,1l3.514,2.111a.793.793,0,0,0,1.134-.333.763.763,0,0,0-.34-1.111l-3.287-1.889v-4C13.374,5.888,13.034,5.555,12.467,5.555Z" transform="translate(-0.011 0.002)"/>
</svg>
