<svg xmlns="http://www.w3.org/2000/svg" viewBox="0 0 40 40">
  <path d="M18.322,36.941q-.016-7.918-.031-15.846H40c.011,6.3,0,12.6,0,18.905C32.784,38.926,25.554,37.923,18.322,36.941ZM0,34.458V20.882c2.86-.011,5.72.009,8.582.029,2.585.018,5.171.036,7.76.031,0,5.259.01,10.507,0,15.765C10.9,35.9,5.454,35.2,0,34.458ZM0,19.219V5.684c5.433-.831,10.887-1.55,16.341-2.238q0,7.857.01,15.714c-4.835,0-9.664.064-14.5.064Q.927,19.223,0,19.219ZM18.322,3.141Q29.138,1.485,40,0V18.957c-7.221.03-14.441.141-21.673.162Q18.306,11.124,18.322,3.141Z"/>
</svg>
