<svg xmlns="http://www.w3.org/2000/svg" viewBox="0 0 17 20">
  <path d="M0,10.927C0,6.948,2.59,4.862,5.018,4.862c1.579,0,2.806.878,3.627.878.706,0,2.014-.93,3.717-.93a4.682,4.682,0,0,1,4.083,2A4.342,4.342,0,0,0,14.191,10.6,4.488,4.488,0,0,0,17,14.668s-1.963,5.3-4.617,5.3c-1.22,0-2.165-.788-3.449-.788-1.309,0-2.607.818-3.453.818C3.059,20,0,14.971,0,10.927ZM8.471,4.6a3.587,3.587,0,0,1,.908-2.855A4.542,4.542,0,0,1,12.653,0a4.135,4.135,0,0,1-1.079,3.2A3.753,3.753,0,0,1,8.747,4.613,1.852,1.852,0,0,1,8.471,4.6Z"/>
</svg>
