<svg xmlns="http://www.w3.org/2000/svg" viewBox="0 0 34 40">
  <path d="M11.777,34a1.378,1.378,0,0,0,.948-2.326c-.55-.551-3.607-2.816-4.4-3.7-.367-.429-.887-.612-1.1-1.071a4.375,4.375,0,0,1-.214-3.7c.122-.214.183-.122.092.306-.489,2.357,1.039,4.255,1.376,3.275a19.719,19.719,0,0,0,.153-2.847c.214-1.714,1.773-4.989,2.446-5.173-1.039-1.959,1.223-3.49,1.192-5.2-.031-1.1.978,1.377,1.987,1.9,1.131.582,2.354-1.1,4.1-1.959.489-.245,1.131-.52,1.07-.735-.214-1.01-2.293,1.224-4.158,1.316a1.67,1.67,0,0,1-1.5-.49c-.978-.949.092-.153,1.59-.429a5.5,5.5,0,0,0,1.559-.52c.7-.275,1.5-.7,2.262-.918.55-.153.489-.551.275-.673-.122-.061-.306-.061-.459.184-.336.582-1.926.918-2.415,1.071a6.912,6.912,0,0,1-2.262.337c-1.406-.061-1.1-.7-2.109-1.286-.306-.184-.214-.612.183-1.01.214-.214.764-.337,1.07-.8a3.443,3.443,0,0,1,.673-.643c.092-.061.122-1.806-.795-1.837-.764-.031-.978.551-.948,1.133s.336,1.071.55,1.071c.4,0,.031.429-.183.52-.336.122-.795-1.316-.734-1.99.061-.7.428-1.959,1.315-1.928.795.031,1.376,1.041,1.345,2.755,0,.306,1.315-.153,1.743.306.306.337-1.07-3.092,2.018-3.306.795.153,1.59.429,1.9,2.3-.122.184.214,1.5-.306,1.653-.611.184-.978-.031-.642-.612.245-.582,0-2.081-1.223-1.99s-1.07,2.3-.734,2.326,1.192.643,1.773.765c1.957.367.52,1.5.764,2.847.275,1.531,1.284,1.133,2.2,5.173.183.245.948.49,1.681,3.581.642,2.816-.275,4.836,1.315,4.683a1.1,1.1,0,0,0,1.1-.918c.581-2.081-.306-4.561-1.192-6.214a7.534,7.534,0,0,0-1.284-1.867,7.129,7.129,0,0,1,2.629,3.979c.4,1.9.673,2.694.092,4.683.336.184,1.223.551,1.223.949-.887-.735-3.669-.888-3.73.888a1.37,1.37,0,0,0-1.131.4c-1.1,1.316-.092,3.949-.183,5.387-.092,1.255-.459,2.479-.642,3.734-.673-.031-.581-.52-.4-1.194a8.647,8.647,0,0,0,.52-2.081c.031-.643-.061-1.071-.214-1.163s-.428.092-.764.673c-.764,1.224-2.385,1.745-3.944,1.959-1.529.184-2.965.031-3.7-.8-.245-.275-.673.092-.734.153-.061.092.245.306.489.735.336.643.673,1.622-.153,2.051.061-2.2-.642-2.326-1.376-3.7Zm-.55-.061c.55.857,2.476,4.5-.917,4.989-1.131.153-2.965-.673-4.738-1.1-1.59-.4-3.21-.612-4.1-.888-.55-.153-.764-.337-.825-.582-.122-.612.673-1.439.7-2.173A3.516,3.516,0,0,0,.832,32.5c-.245-.582-.306-1.01-.122-1.286.153-.184.459-.275.978-.214a3.193,3.193,0,0,0,1.834-.337,1.931,1.931,0,0,0,.7-2.357,1.813,1.813,0,0,1-1.192,1.9c-.795.459-2.048.092-2.6.582-.673.582.245,2.143.183,3.245-.061.857-.948,1.837-.55,2.724s2.293.98,4.28,1.377c2.813.582,4.433,1.622,5.717,1.653,1.9.061,2.171-1.867,5.136-1.9l2.568-.092c.948,0,1.926,0,2.9.031,1.987.061,1.284,1.071,2.568,1.745a4.071,4.071,0,0,0,3.485-.122,18.71,18.71,0,0,1,3.607-2.694c1.62-.826,5.411-2.2,2.66-3.918-.642-.4-2.14-.826-2.293-3.734-.581.52-.52,3.214,1.1,3.765,1.773.612,2.9,1.622-.428,2.755a9.925,9.925,0,0,0-4.31,2.449c-1.773,1.469-4.372.888-3.913-2.2a9.9,9.9,0,0,0-.031-4.347,4.836,4.836,0,0,1-.153-2.173c.245-1.194.917-1.561,1.529-.4.4.735.55,1.561,1.957,1.622,2.232.122,2.69-2.173,3.393-2.265.489-.061.948-1.408.581-3.612a18.125,18.125,0,0,0-3.516-7.928A11.592,11.592,0,0,1,23.944,11.9a13.912,13.912,0,0,1-.673-4.745,7.819,7.819,0,0,0-2.69-6.03A7.6,7.6,0,0,0,16.24-.1a4.724,4.724,0,0,0-2.323.49c-2.568,1.408-2.935,3.4-2.9,5.693.031,2.143.122,4.592.367,6.949-.275,1.071-1.8,3.092-2.751,4.347-1.284,1.286-1.957,3.765-2.782,5.908-.459,1.163-1.192,1.684-1.253,3.153-.031.429,0,1.5.4,1.194,1.467-1.163,3.363,1.775,6.236,6.306ZM19.083,2.927c-.092.245-.428.459-.214.612.214.184.336-.245.764-.4.122-.031.642.031.734-.214.031-.122-.275-.214-.459-.4s-.367-.337-.52-.306c-.459.031-.245.49-.306.7Zm2.629,8.938c.153-.153.245.275.673.551.336.214.673.061.764.49.061.306-.122.643-.4.612-.459-.092-1.5-1.163-1.039-1.653ZM14.62,9.11c-.7-.061-.764.459-.52.459.245-.031.092-.429.52-.459ZM13.4,7.794c.092-.031.214.122.153.337-.061.275-.031.459.153.459.031,0,.061,0,.092-.092a.96.96,0,0,0-.306-.98c-.275-.092-.245.306-.092.275Zm5.166-.245a.845.845,0,0,1,.4.7c0,.031.245-.061.245-.122a.794.794,0,0,0-.581-.8c-.275.031-.214.184-.061.214ZM15.9,9.172c.642-.306.856.153.642.245-.214.061-.214-.367-.642-.245ZM8.139,20.161c-.306-.031.092-.275.245-.551.183-.306.153-.7.336-.643s.092.275-.061.643a1.01,1.01,0,0,1-.52.551Z" transform="translate(0.034 0.105)"/>
</svg>
