<svg xmlns="http://www.w3.org/2000/svg" viewBox="0 0 17 20">
  <path d="M1.238,6.493A1.234,1.234,0,0,0,0,7.725v5.167a1.238,1.238,0,0,0,2.475,0V7.725A1.224,1.224,0,0,0,1.238,6.493m10-4.641L12.1.278a.175.175,0,0,0-.065-.233A.173.173,0,0,0,11.8.116l-.872,1.59A6.053,6.053,0,0,0,6.079,1.7L5.207.116A.178.178,0,0,0,4.972.045.176.176,0,0,0,4.9.278l.867,1.574A5.042,5.042,0,0,0,2.917,6.3H14.083a5.046,5.046,0,0,0-2.846-4.445M5.959,4.279a.467.467,0,1,1,.469-.467.468.468,0,0,1-.469.467m5.081,0a.467.467,0,1,1,.469-.467.468.468,0,0,1-.469.467M2.961,6.727v8.011a1.32,1.32,0,0,0,1.325,1.319h.9v2.736a1.238,1.238,0,0,0,2.475-.005V16.052H9.334v2.736a1.238,1.238,0,0,0,2.475,0V16.052h.905a1.32,1.32,0,0,0,1.325-1.319V6.721ZM17,7.725a1.238,1.238,0,0,0-2.475,0v5.167a1.238,1.238,0,0,0,2.475,0Z" transform="translate(0 -0.025)"/>
</svg>
