<svg xmlns="http://www.w3.org/2000/svg" viewBox="0 0 195 60">
    <g transform="translate(-49 -291)">
        <g fill="#fff200" transform="translate(49 291)">
            <path d="M3.782,46.038c1.191,3.143,2.311,6.077,3.432,8.941,1.121,2.794,2.241,5.518,3.362,8.1s2.241,5.1,3.5,7.614h4.483c1.191-2.515,2.381-5.029,3.5-7.614s2.241-5.239,3.362-8.1c1.121-2.794,2.311-5.8,3.432-8.941q1.786-4.715,3.782-10.268H27.527s-6.654,18.65-7.775,21.374c-1.051,2.724-2.171,5.378-3.362,7.893-1.121-2.515-2.241-5.169-3.292-7.893S7.425,41.637,6.934,40.17,5.884,37.237,5.323,35.7H0C1.331,39.542,2.592,42.964,3.782,46.038Z"
                transform="translate(0 -10.694)" />
        </g>
        <g fill="#FFF" transform="translate(49 291)">
            <path  d="M71.87,12.927c1.051-.279,2.522-.559,4.273-.838a39.1,39.1,0,0,1,6.094-.419,10.572,10.572,0,0,1,4.2.7,7.5,7.5,0,0,1,2.872,1.956c.21-.14.63-.419,1.121-.7a12.022,12.022,0,0,1,1.891-.908,20.268,20.268,0,0,1,2.452-.768,13.056,13.056,0,0,1,2.942-.349,11.5,11.5,0,0,1,4.973.908,6.658,6.658,0,0,1,3.012,2.515,10.483,10.483,0,0,1,1.471,3.842,25.988,25.988,0,0,1,.35,4.82V38.352h-4.693V24.662a32.548,32.548,0,0,0-.21-3.981,7.729,7.729,0,0,0-.841-2.794A3.72,3.72,0,0,0,100.1,16.28a6.435,6.435,0,0,0-2.8-.559,10.476,10.476,0,0,0-3.922.629,6.822,6.822,0,0,0-2.1,1.118,15.765,15.765,0,0,1,.63,2.864,24.262,24.262,0,0,1,.21,3.283V38.282H87.35V24.662a22.132,22.132,0,0,0-.28-3.981,7.724,7.724,0,0,0-.911-2.794,3.72,3.72,0,0,0-1.681-1.607,6.108,6.108,0,0,0-2.732-.559,11.905,11.905,0,0,0-1.541.07,10.52,10.52,0,0,0-1.541.14c-.49.07-.911.14-1.331.21s-.7.14-.841.14V38.352H71.8V12.927Z"
                transform="translate(-21.509 -3.428)" />
            <path  d="M155.055,25.29a15.99,15.99,0,0,1-.911,5.658,13.841,13.841,0,0,1-2.522,4.331,11.191,11.191,0,0,1-3.922,2.794,12.882,12.882,0,0,1-4.973.978,13.147,13.147,0,0,1-4.973-.978,11.191,11.191,0,0,1-3.922-2.794,11.594,11.594,0,0,1-2.522-4.331,15.991,15.991,0,0,1-.911-5.658,15.862,15.862,0,0,1,.911-5.588,13.841,13.841,0,0,1,2.522-4.331,10.59,10.59,0,0,1,3.922-2.794,12.882,12.882,0,0,1,4.973-.978,13.147,13.147,0,0,1,4.973.978,11.191,11.191,0,0,1,3.922,2.794,11.6,11.6,0,0,1,2.522,4.331A15.6,15.6,0,0,1,155.055,25.29Zm-4.9,0a11.047,11.047,0,0,0-1.961-6.985,6.426,6.426,0,0,0-5.393-2.584,6.339,6.339,0,0,0-5.393,2.584,11.183,11.183,0,0,0-1.961,6.985,11.047,11.047,0,0,0,1.961,6.985A6.426,6.426,0,0,0,142.8,34.86a6.339,6.339,0,0,0,5.393-2.584A11.183,11.183,0,0,0,150.152,25.29Z"
                transform="translate(-39.064 -3.428)" />
            <path  d="M191.875,12.5a144.688,144.688,0,0,1-4.623,14.109c-1.751,4.47-3.5,8.522-5.113,12.084h-4.2c-1.681-3.562-3.362-7.544-5.113-12.084A138.765,138.765,0,0,1,168.2,12.5h5.043q.63,2.515,1.471,5.239c.56,1.816,1.121,3.7,1.751,5.518s1.261,3.562,1.891,5.309c.63,1.676,1.261,3.213,1.821,4.61.56-1.327,1.191-2.864,1.821-4.61.63-1.676,1.261-3.492,1.891-5.309s1.191-3.7,1.751-5.518,1.051-3.632,1.471-5.239Z"
                transform="translate(-50.387 -3.699)" />
            <path  d="M204.6,25.23a17.835,17.835,0,0,1,.981-6.077,13.341,13.341,0,0,1,2.662-4.331,11.006,11.006,0,0,1,3.852-2.584,12.349,12.349,0,0,1,4.413-.838c3.5,0,6.234,1.118,8.125,3.283s2.8,5.518,2.8,10.058v.768a3.679,3.679,0,0,1-.07.908H209.433a9.689,9.689,0,0,0,2.381,6.217c1.4,1.4,3.5,2.1,6.444,2.1a17.1,17.1,0,0,0,4.133-.419,13.049,13.049,0,0,0,2.522-.838l.63,3.912a14.92,14.92,0,0,1-3.012.978,20.576,20.576,0,0,1-4.833.489,15.372,15.372,0,0,1-5.954-1.048,10.966,10.966,0,0,1-4.133-2.864,11.336,11.336,0,0,1-2.381-4.331A24.135,24.135,0,0,1,204.6,25.23Zm18-2.515a8.068,8.068,0,0,0-1.611-5.239,5.567,5.567,0,0,0-4.483-2.026,6.42,6.42,0,0,0-2.872.629,6.986,6.986,0,0,0-2.1,1.607,7.615,7.615,0,0,0-1.331,2.305,8.646,8.646,0,0,0-.63,2.654H222.6Z"
                transform="translate(-61.292 -3.367)" />
            <path  d="M267.855,25.29a15.991,15.991,0,0,1-.911,5.658,13.841,13.841,0,0,1-2.522,4.331,11.19,11.19,0,0,1-3.922,2.794,12.882,12.882,0,0,1-4.973.978,13.147,13.147,0,0,1-4.973-.978,11.191,11.191,0,0,1-3.922-2.794,11.6,11.6,0,0,1-2.522-4.331,15.991,15.991,0,0,1-.911-5.658,15.862,15.862,0,0,1,.911-5.588,13.841,13.841,0,0,1,2.522-4.331,10.59,10.59,0,0,1,3.922-2.794,12.883,12.883,0,0,1,4.973-.978,13.146,13.146,0,0,1,4.973.978,11.19,11.19,0,0,1,3.922,2.794,11.6,11.6,0,0,1,2.522,4.331A17.307,17.307,0,0,1,267.855,25.29Zm-4.9,0a11.047,11.047,0,0,0-1.961-6.985,6.426,6.426,0,0,0-5.393-2.584,6.339,6.339,0,0,0-5.393,2.584,11.183,11.183,0,0,0-1.961,6.985,11.047,11.047,0,0,0,1.961,6.985A6.426,6.426,0,0,0,255.6,34.86a6.339,6.339,0,0,0,5.393-2.584A11.644,11.644,0,0,0,262.952,25.29Z"
                transform="translate(-72.855 -3.428)" />
            <path  d="M48.458,24.557c-1.191-3.143-2.311-6.077-3.432-8.941-1.121-2.794-2.241-5.518-3.362-8.1s-2.241-5.1-3.5-7.614H33.679c-1.191,2.515-2.381,5.029-3.5,7.614s-2.241,5.239-3.362,8.1c-1.121,2.794-2.311,5.8-3.432,8.941Q21.6,29.271,19.6,34.824h5.113s6.654-18.65,7.775-21.374c1.051-2.724,2.171-5.378,3.362-7.893,1.121,2.515,2.241,5.169,3.292,7.893s5.673,15.506,6.164,16.973,1.051,2.934,1.611,4.47H52.24C50.909,31.122,49.649,27.7,48.458,24.557Z"
                transform="translate(-5.872 0.1)" />
        </g>
        <g fill="#fff200" transform="translate(175 333)">

            <path d="M11.895,5.168c.161.592.377,1.292.592,2.1.215.754.431,1.561.7,2.422.269.807.484,1.668.754,2.476s.484,1.615.754,2.314c.215-.754.377-1.615.592-2.53s.377-1.83.592-2.8c.161-.969.377-1.938.538-2.906s.323-1.884.484-2.745h3.66c-.538,2.637-1.13,5.275-1.83,7.966s-1.453,5.275-2.261,7.7H13.24c-.538-1.453-1.023-2.96-1.507-4.575s-.969-3.176-1.453-4.79c-.484,1.615-.969,3.176-1.453,4.79s-.969,3.122-1.507,4.575H4.09c-.807-2.422-1.561-5.005-2.261-7.7S.538,6.137,0,3.5H3.821q.242,1.292.484,2.745c.161.969.377,1.938.592,2.906s.377,1.884.592,2.8.431,1.722.646,2.53c.269-.754.538-1.507.807-2.368.269-.807.484-1.668.754-2.476.215-.807.484-1.615.646-2.368.215-.754.377-1.453.538-2.045h3.014Z"
                transform="translate(0 -1.616)" />
            <path d="M44.259,9.9a8.127,8.127,0,0,1,2.476.323,4.054,4.054,0,0,1,1.615.969,3.672,3.672,0,0,1,.861,1.561,7.742,7.742,0,0,1,.269,1.991v7c-.484.108-1.13.215-1.991.377a18.393,18.393,0,0,1-3.176.215,8.672,8.672,0,0,1-2.1-.215,5.611,5.611,0,0,1-1.615-.646,3.089,3.089,0,0,1-1.023-1.184,4.6,4.6,0,0,1-.377-1.83,3.612,3.612,0,0,1,.431-1.776,2.854,2.854,0,0,1,1.13-1.13,6.835,6.835,0,0,1,3.5-.861,8.334,8.334,0,0,1,1.184.054q.484.081.807.161v-.323a1.826,1.826,0,0,0-.538-1.4,2.645,2.645,0,0,0-1.83-.538,16.3,16.3,0,0,0-1.668.108,5.741,5.741,0,0,0-1.453.377l-.431-2.691c.215-.054.431-.108.754-.215q.4-.081.969-.161c.377-.054.7-.108,1.076-.161Zm.269,9.849H45.5c.323,0,.538-.054.7-.054v-2.53c-.161-.054-.323-.054-.592-.108A3.813,3.813,0,0,0,44.851,17a5.223,5.223,0,0,0-.915.054,3.085,3.085,0,0,0-.754.215,1.271,1.271,0,0,0-.484.431,1.347,1.347,0,0,0-.161.7c0,.538.161.915.538,1.076A3.684,3.684,0,0,0,44.528,19.749Z"
                transform="translate(-18.102 -4.572)" />
            <path d="M68.236,17.761a7.173,7.173,0,0,1-2.368-.323,4.657,4.657,0,0,1-1.453-.807,2.552,2.552,0,0,1-.7-1.292,7.909,7.909,0,0,1-.215-1.722V.538L66.891,0V12.971a3.566,3.566,0,0,0,.054.807,1.2,1.2,0,0,0,.269.592,1.465,1.465,0,0,0,.538.431,3.253,3.253,0,0,0,.969.215Z"
                transform="translate(-29.323)" />
            <path d="M81.136,17.761a7.173,7.173,0,0,1-2.368-.323,4.658,4.658,0,0,1-1.453-.807,2.552,2.552,0,0,1-.7-1.292,7.908,7.908,0,0,1-.215-1.722V.538L79.791,0V12.971a3.565,3.565,0,0,0,.054.807,1.2,1.2,0,0,0,.269.592,1.465,1.465,0,0,0,.538.431,3.253,3.253,0,0,0,.969.215Z"
                transform="translate(-35.28)" />
            <path d="M88.3,16.251a6.958,6.958,0,0,1,.484-2.745,5.8,5.8,0,0,1,1.292-1.991,5.108,5.108,0,0,1,1.83-1.184,5.853,5.853,0,0,1,2.1-.431,5.267,5.267,0,0,1,3.983,1.561,6.4,6.4,0,0,1,1.453,4.575v.646c0,.215-.054.431-.054.646H91.8A2.178,2.178,0,0,0,92.767,19a3.8,3.8,0,0,0,2.314.592,10.511,10.511,0,0,0,1.83-.161A6.751,6.751,0,0,0,98.365,19l.431,2.745a5.626,5.626,0,0,1-1.722.484c-.377.054-.754.108-1.184.161a10.372,10.372,0,0,1-1.292.054,7.432,7.432,0,0,1-2.8-.484,5.8,5.8,0,0,1-1.991-1.292,4.4,4.4,0,0,1-1.13-1.938A9.5,9.5,0,0,1,88.3,16.251Zm7.912-1.292a2.676,2.676,0,0,0-.161-.861,2.153,2.153,0,0,0-1.023-1.238,2.287,2.287,0,0,0-1.938,0,7.874,7.874,0,0,0-.7.484,2.518,2.518,0,0,0-.431.754,4.03,4.03,0,0,0-.215.861Z"
                transform="translate(-40.775 -4.572)" />
            <path d="M113.4,4.538,116.791,4V7.5h4.037v2.8h-4.037v4.2a2.95,2.95,0,0,0,.377,1.668,1.617,1.617,0,0,0,1.507.646,8.03,8.03,0,0,0,1.13-.108,6.3,6.3,0,0,0,1.076-.269l.484,2.637a9.841,9.841,0,0,1-1.346.431,8.879,8.879,0,0,1-1.83.161,5.512,5.512,0,0,1-2.261-.377,4.155,4.155,0,0,1-1.453-1.023,3.745,3.745,0,0,1-.754-1.615,8.671,8.671,0,0,1-.215-2.1V4.538Z"
                transform="translate(-52.366 -1.847)" />
        </g>
    </g>
</svg>
