<svg xmlns="http://www.w3.org/2000/svg" viewBox="0 0 24 24">
  <g transform="translate(949 144) rotate(180)">
    <path d="M15.9,2.975a1.139,1.139,0,0,0-1.648,0L6.52,10.946a.976.976,0,0,0,0,1.353l7.737,7.971a1.139,1.139,0,0,0,1.648,0,1.224,1.224,0,0,0,0-1.7l-6.74-6.954,6.75-6.954A1.221,1.221,0,0,0,15.9,2.975Z" transform="translate(918.753 117.377)"/>
    <path d="M7.355,20.26A1.139,1.139,0,0,0,9,20.26l7.737-7.971a.976.976,0,0,0,0-1.353L9,2.965a1.139,1.139,0,0,0-1.648,0,1.224,1.224,0,0,0,0,1.7l6.74,6.954-6.75,6.954A1.221,1.221,0,0,0,7.355,20.26Z" transform="translate(931.989 123.388)"/>
  </g>
</svg>
